<svg xmlns="http://www.w3.org/2000/svg" width="40" height="40" viewBox="0 0 40 40" fill="none">
  <rect x="0.5" y="0.5" width="39" height="39" rx="19.5" fill="white" stroke="#141312"/>
  <path d="M20.252 9.14117L20.125 8.93887L19.998 9.14117L16.6096 14.5371L16.4653 14.7669H16.7366H18.3452L14.6122 20.7116L14.4679 20.9414H14.7392H16.3645L12.6315 26.886L12.4872 27.1158H12.7585H19.0947V30.1404V30.2904H19.2447H21.0053H21.1553V30.1404V27.1158H27.4915H27.7628L27.6185 26.886L23.8855 20.9414H25.5108H25.7821L25.6378 20.7116L21.9048 14.7669H23.5134H23.7847L23.6404 14.5371L20.252 9.14117ZM13.7034 16.3264L15.3649 13.6805L18.7533 8.28453L18.6263 8.20476L18.7533 8.28453L20.125 6.10018L21.4967 8.28453L21.6237 8.20476L21.4967 8.28454L24.8852 13.6803L26.5467 16.3262H24.9381H24.6668L24.811 16.5559L26.8825 19.8548L28.544 22.5007H26.9188H26.6474L26.7917 22.7305L28.8632 26.0294L30.5247 28.6753H22.7949H22.6449V28.8253V31.8499H17.6051V28.8256V28.6756H17.4551H9.72541L11.3869 26.0296L13.4584 22.7307L13.6027 22.501H13.3314H11.7061L13.3676 19.8551L15.439 16.5562L15.5833 16.3264H15.312H13.7034Z" fill="#141312" stroke="white" stroke-width="0.3"/>
</svg>