 <svg xmlns="http://www.w3.org/2000/svg" width="18" height="18" viewBox="0 0 18 18" fill="none">
  <path d="M13.8276 18H13.8011C10.1627 17.9104 6.69065 16.4577 4.07266 13.9295C1.5435 11.3138 0.0898969 7.8431 0.000104912 4.20578C-0.00525295 3.69625 0.194805 3.206 0.555203 2.84577L3.12558 0.277292C3.49541 -0.0924307 4.09491 -0.0924307 4.46475 0.277292L8.25307 4.06561C8.62279 4.43545 8.62279 5.03495 8.25307 5.40478L6.74153 6.91348C7.02187 7.96088 7.53828 8.93019 8.25117 9.74714C9.06665 10.4603 10.0347 10.9771 11.081 11.2577L12.5964 9.74809C12.9662 9.37837 13.5657 9.37837 13.9355 9.74809L17.7239 13.5364C18.0936 13.9062 18.0936 14.5057 17.7239 14.8756L15.1535 17.445C14.803 17.7991 14.3258 17.9989 13.8276 18ZM3.79327 2.287H3.78853L1.89437 4.18494C1.9716 7.32798 3.22627 10.3274 5.40993 12.5893C7.67197 14.7722 10.6708 16.0268 13.8134 16.1049L15.7142 14.206L13.2593 11.7578L12.0348 12.9814C11.8596 13.1586 11.6209 13.2585 11.3718 13.2589C11.3053 13.2589 11.2389 13.252 11.1739 13.2381C9.59568 12.889 8.13032 12.1495 6.912 11.0873C5.84981 9.86895 5.11029 8.40359 4.76119 6.8254C4.69533 6.5117 4.79262 6.18597 5.01974 5.95977L6.24337 4.7352L3.79327 2.287Z" fill="#141312"/>
</svg>